HIERARCHY
ROOT Hips
{
    OFFSET 0.000000 97.120003 0.000000
    CHANNELS 6 Xposition Yposition Zposition Yrotation Xrotation Zrotation
    JOINT RightUpLeg
    {
        OFFSET -11.000000 -0.000000 0.000000
        CHANNELS 3 Yrotation Xrotation Zrotation
        JOINT RightLeg
        {
            OFFSET 0.000000 -45.062000 0.000000
            CHANNELS 3 Yrotation Xrotation Zrotation
            JOINT RightFoot
            {
                OFFSET 0.000000 -42.057999 0.000000
                CHANNELS 3 Yrotation Xrotation Zrotation
                End Site
                {
                    OFFSET 0.000000 -10.000000 15.120000
                }
            }
        }
    }
    JOINT LeftUpLeg
    {
        OFFSET 11.000000 -0.000000 0.000000
        CHANNELS 3 Yrotation Xrotation Zrotation
        JOINT LeftLeg
        {
            OFFSET 0.000000 -45.062000 0.000000
            CHANNELS 3 Yrotation Xrotation Zrotation
            JOINT LeftFoot
            {
                OFFSET 0.000000 -42.057999 0.000000
                CHANNELS 3 Yrotation Xrotation Zrotation
                End Site
                {
                    OFFSET 0.000000 -10.000000 15.120000
                }
            }
        }
    }
    JOINT Spine
    {
        OFFSET 0.000000 8.120000 0.000000
        CHANNELS 3 Yrotation Xrotation Zrotation
        JOINT Spine1
        {
            OFFSET 0.000000 17.980000 0.000000
            CHANNELS 3 Yrotation Xrotation Zrotation
            JOINT Spine2
            {
                OFFSET 0.000000 12.760000 0.000000
                CHANNELS 3 Yrotation Xrotation Zrotation
                JOINT Neck
                {
                    OFFSET 0.000000 19.139999 0.000000
                    CHANNELS 3 Yrotation Xrotation Zrotation
                    JOINT Neck1
                    {
                        OFFSET 0.000000 4.250000 0.000000
                        CHANNELS 3 Yrotation Xrotation Zrotation
                        JOINT Head
                        {
                            OFFSET 0.000000 4.250000 0.000000
                            CHANNELS 3 Yrotation Xrotation Zrotation
                            End Site
                            {
                                OFFSET 0.000000 19.120001 0.000000
                            }
                        }
                    }
                }
                JOINT RightShoulder
                {
                    OFFSET -2.900000 13.340000 0.000000
                    CHANNELS 3 Yrotation Xrotation Zrotation
                    JOINT RightArm
                    {
                        OFFSET -16.100000 0.000000 0.000000
                        CHANNELS 3 Yrotation Xrotation Zrotation
                        JOINT RightForeArm
                        {
                            OFFSET -28.000000 0.000000 0.000000
                            CHANNELS 3 Yrotation Xrotation Zrotation
                            JOINT RightHand
                            {
                                OFFSET -26.000000 0.000000 0.000000
                                CHANNELS 3 Yrotation Xrotation Zrotation
                                JOINT RightHandThumb1
                                {
                                    OFFSET -1.937000 -0.484000 2.518000
                                    CHANNELS 3 Yrotation Xrotation Zrotation
                                    JOINT RightHandThumb2
                                    {
                                        OFFSET -3.872000 0.000000 0.000000
                                        CHANNELS 3 Yrotation Xrotation Zrotation
                                        JOINT RightHandThumb3
                                        {
                                            OFFSET -2.690000 0.000000 0.000000
                                            CHANNELS 3 Yrotation Xrotation Zrotation
                                            End Site
                                            {
                                                OFFSET -2.537000 0.000000 0.000000
                                            }
                                        }
                                    }
                                }
                                JOINT RightInHandIndex
                                {
                                    OFFSET -3.389000 0.535000 2.080000
                                    CHANNELS 3 Yrotation Xrotation Zrotation
                                    JOINT RightHandIndex1
                                    {
                                        OFFSET -5.485000 -0.096000 1.051000
                                        CHANNELS 3 Yrotation Xrotation Zrotation
                                        JOINT RightHandIndex2
                                        {
                                            OFFSET -3.806000 0.000000 0.000000
                                            CHANNELS 3 Yrotation Xrotation Zrotation
                                            JOINT RightHandIndex3
                                            {
                                                OFFSET -2.158000 0.000000 0.000000
                                                CHANNELS 3 Yrotation Xrotation Zrotation
                                                End Site
                                                {
                                                    OFFSET -1.898000 0.000000 0.000000
                                                }
                                            }
                                        }
                                    }
                                }
                                JOINT RightInHandMiddle
                                {
                                    OFFSET -3.556000 0.544000 0.796000
                                    CHANNELS 3 Yrotation Xrotation Zrotation
                                    JOINT RightHandMiddle1
                                    {
                                        OFFSET -5.441000 -0.088000 0.330000
                                        CHANNELS 3 Yrotation Xrotation Zrotation
                                        JOINT RightHandMiddle2
                                        {
                                            OFFSET -4.153000 0.000000 0.000000
                                            CHANNELS 3 Yrotation Xrotation Zrotation
                                            JOINT RightHandMiddle3
                                            {
                                                OFFSET -2.603000 0.000000 0.000000
                                                CHANNELS 3 Yrotation Xrotation Zrotation
                                                End Site
                                                {
                                                    OFFSET -2.076000 0.000000 0.000000
                                                }
                                            }
                                        }
                                    }
                                }
                                JOINT RightInHandRing
                                {
                                    OFFSET -3.539000 0.566000 -0.136000
                                    CHANNELS 3 Yrotation Xrotation Zrotation
                                    JOINT RightHandRing1
                                    {
                                        OFFSET -4.873000 -0.023000 -0.504000
                                        CHANNELS 3 Yrotation Xrotation Zrotation
                                        JOINT RightHandRing2
                                        {
                                            OFFSET -3.619000 0.000000 0.000000
                                            CHANNELS 3 Yrotation Xrotation Zrotation
                                            JOINT RightHandRing3
                                            {
                                                OFFSET -2.511000 0.000000 0.000000
                                                CHANNELS 3 Yrotation Xrotation Zrotation
                                                End Site
                                                {
                                                    OFFSET -1.952000 0.000000 0.000000
                                                }
                                            }
                                        }
                                    }
                                }
                                JOINT RightInHandPinky
                                {
                                    OFFSET -3.324000 0.494000 -1.264000
                                    CHANNELS 3 Yrotation Xrotation Zrotation
                                    JOINT RightHandPinky1
                                    {
                                        OFFSET -4.354000 -0.023000 -1.147000
                                        CHANNELS 3 Yrotation Xrotation Zrotation
                                        JOINT RightHandPinky2
                                        {
                                            OFFSET -2.898000 0.000000 0.000000
                                            CHANNELS 3 Yrotation Xrotation Zrotation
                                            JOINT RightHandPinky3
                                            {
                                                OFFSET -1.831000 0.000000 0.000000
                                                CHANNELS 3 Yrotation Xrotation Zrotation
                                                End Site
                                                {
                                                    OFFSET -1.730000 0.000000 0.000000
                                                }
                                            }
                                        }
                                    }
                                }
                            }
                        }
                    }
                }
                JOINT LeftShoulder
                {
                    OFFSET 2.900000 13.340000 0.000000
                    CHANNELS 3 Yrotation Xrotation Zrotation
                    JOINT LeftArm
                    {
                        OFFSET 16.100000 0.000000 0.000000
                        CHANNELS 3 Yrotation Xrotation Zrotation
                        JOINT LeftForeArm
                        {
                            OFFSET 28.000000 0.000000 0.000000
                            CHANNELS 3 Yrotation Xrotation Zrotation
                            JOINT LeftHand
                            {
                                OFFSET 26.000000 0.000000 0.000000
                                CHANNELS 3 Yrotation Xrotation Zrotation
                                JOINT LeftHandThumb1
                                {
                                    OFFSET 1.937000 -0.484000 2.518000
                                    CHANNELS 3 Yrotation Xrotation Zrotation
                                    JOINT LeftHandThumb2
                                    {
                                        OFFSET 3.872000 0.000000 0.000000
                                        CHANNELS 3 Yrotation Xrotation Zrotation
                                        JOINT LeftHandThumb3
                                        {
                                            OFFSET 2.690000 0.000000 0.000000
                                            CHANNELS 3 Yrotation Xrotation Zrotation
                                            End Site
                                            {
                                                OFFSET 2.537000 0.000000 0.000000
                                            }
                                        }
                                    }
                                }
                                JOINT LeftInHandIndex
                                {
                                    OFFSET 3.389000 0.535000 2.080000
                                    CHANNELS 3 Yrotation Xrotation Zrotation
                                    JOINT LeftHandIndex1
                                    {
                                        OFFSET 5.485000 -0.096000 1.051000
                                        CHANNELS 3 Yrotation Xrotation Zrotation
                                        JOINT LeftHandIndex2
                                        {
                                            OFFSET 3.806000 0.000000 0.000000
                                            CHANNELS 3 Yrotation Xrotation Zrotation
                                            JOINT LeftHandIndex3
                                            {
                                                OFFSET 2.158000 0.000000 0.000000
                                                CHANNELS 3 Yrotation Xrotation Zrotation
                                                End Site
                                                {
                                                    OFFSET 1.898000 0.000000 0.000000
                                                }
                                            }
                                        }
                                    }
                                }
                                JOINT LeftInHandMiddle
                                {
                                    OFFSET 3.556000 0.544000 0.796000
                                    CHANNELS 3 Yrotation Xrotation Zrotation
                                    JOINT LeftHandMiddle1
                                    {
                                        OFFSET 5.441000 -0.088000 0.330000
                                        CHANNELS 3 Yrotation Xrotation Zrotation
                                        JOINT LeftHandMiddle2
                                        {
                                            OFFSET 4.153000 0.000000 0.000000
                                            CHANNELS 3 Yrotation Xrotation Zrotation
                                            JOINT LeftHandMiddle3
                                            {
                                                OFFSET 2.603000 0.000000 0.000000
                                                CHANNELS 3 Yrotation Xrotation Zrotation
                                                End Site
                                                {
                                                    OFFSET 2.076000 0.000000 0.000000
                                                }
                                            }
                                        }
                                    }
                                }
                                JOINT LeftInHandRing
                                {
                                    OFFSET 3.539000 0.566000 -0.136000
                                    CHANNELS 3 Yrotation Xrotation Zrotation
                                    JOINT LeftHandRing1
                                    {
                                        OFFSET 4.873000 -0.023000 -0.504000
                                        CHANNELS 3 Yrotation Xrotation Zrotation
                                        JOINT LeftHandRing2
                                        {
                                            OFFSET 3.619000 0.000000 0.000000
                                            CHANNELS 3 Yrotation Xrotation Zrotation
                                            JOINT LeftHandRing3
                                            {
                                                OFFSET 2.511000 0.000000 0.000000
                                                CHANNELS 3 Yrotation Xrotation Zrotation
                                                End Site
                                                {
                                                    OFFSET 1.952000 0.000000 0.000000
                                                }
                                            }
                                        }
                                    }
                                }
                                JOINT LeftInHandPinky
                                {
                                    OFFSET 3.324000 0.494000 -1.264000
                                    CHANNELS 3 Yrotation Xrotation Zrotation
                                    JOINT LeftHandPinky1
                                    {
                                        OFFSET 4.354000 -0.023000 -1.147000
                                        CHANNELS 3 Yrotation Xrotation Zrotation
                                        JOINT LeftHandPinky2
                                        {
                                            OFFSET 2.898000 0.000000 0.000000
                                            CHANNELS 3 Yrotation Xrotation Zrotation
                                            JOINT LeftHandPinky3
                                            {
                                                OFFSET 1.831000 0.000000 0.000000
                                                CHANNELS 3 Yrotation Xrotation Zrotation
                                                End Site
                                                {
                                                    OFFSET 1.730000 0.000000 0.000000
                                                }
                                            }
                                        }
                                    }
                                }
                            }
                        }
                    }
                }
            }
        }
    }
}
MOTION
Frames: 4
Frame Time: 0.011111
0.000000 97.119995 0.000000 0.000000 0.000000 0.000000 0.000000 0.000000 0.000000 0.000000 0.000000 0.000000 0.000000 0.000000 0.000000 0.000000 0.000000 0.000000 0.000000 0.000000 0.000000 0.000000 0.000000 0.000000 0.000000 0.000000 0.000000 0.000000 0.000000 0.000000 0.000000 0.000000 0.000000 0.000000 0.000000 0.000000 0.000000 0.000000 0.000000 0.000000 0.000000 0.000000 0.000000 0.000000 0.000000 0.000000 0.000000 0.000000 0.000000 0.000000 0.000000 0.000000 0.000000 0.000000 0.000000 0.000000 0.000000 0.000000 0.000000 0.000000 0.000000 0.000000 0.000000 0.000000 0.000000 0.000000 0.000000 0.000000 0.000000 0.000000 0.000000 0.000000 0.000000 0.000000 0.000000 0.000000 0.000000 0.000000 0.000000 0.000000 0.000000 0.000000 0.000000 0.000000 0.000000 0.000000 0.000000 0.000000 0.000000 0.000000 0.000000 0.000000 0.000000 0.000000 0.000000 0.000000 0.000000 0.000000 0.000000 0.000000 0.000000 0.000000 0.000000 0.000000 0.000000 0.000000 0.000000 0.000000 0.000000 0.000000 0.000000 0.000000 0.000000 0.000000 0.000000 0.000000 0.000000 0.000000 0.000000 0.000000 0.000000 0.000000 0.000000 0.000000 0.000000 0.000000 0.000000 0.000000 0.000000 0.000000 0.000000 0.000000 0.000000 0.000000 0.000000 0.000000 0.000000 0.000000 0.000000 0.000000 0.000000 0.000000 0.000000 0.000000 0.000000 0.000000 0.000000 0.000000 0.000000 0.000000 0.000000 0.000000 0.000000 0.000000 0.000000 0.000000 0.000000 0.000000 0.000000 0.000000 0.000000 0.000000 0.000000 0.000000 0.000000 0.000000 0.000000 0.000000 0.000000 0.000000 0.000000 0.000000 0.000000 0.000000 0.000000 0.000000 0.000000 0.000000 0.000000 0.000000
0.100518 96.924957 -0.739866 179.509796 -179.702667 -179.898773 175.402939 175.755142 179.040482 2.351411 0.232310 0.774215 175.125046 -175.277435 179.928406 9.338657 3.163967 0.019497 175.089371 176.847488 -179.138062 178.491058 -173.219711 179.280624 179.593842 175.615128 179.911575 179.592499 175.699753 179.873383 178.109543 176.891098 179.697281 0.000001 -3.879236 0.243080 180.000000 -175.474243 -179.748245 176.829712 -176.673309 -179.665314 4.137620 2.117022 1.333819 9.243923 -10.368666 85.097710 1.811192 0.013017 1.722612 173.280579 177.904877 174.865891 53.232533 42.848721 9.344238 0.000003 -0.000002 6.036899 179.999985 -179.999985 -175.979431 0.000000 -0.000000 0.000003 15.000002 -0.000002 22.043434 0.000001 0.000000 18.035538 0.000001 0.000000 12.624879 0.000000 -0.000000 0.000003 0.000002 -0.000001 20.355310 0.000002 -0.000001 20.355314 0.000001 0.000001 13.556639 0.000000 -0.000000 0.000003 170.000000 -179.999985 -157.813812 0.000004 0.000001 22.186174 0.000002 -0.000000 14.776010 0.000000 -0.000000 0.000003 160.000000 180.000000 -162.817841 0.000004 0.000001 25.773211 0.000000 -0.000000 17.164951 0.544508 -1.317519 0.047688 168.515472 -171.960571 94.379929 177.692993 -178.332672 179.751617 3.388677 5.682184 5.748583 129.665329 126.663567 168.219437 0.000012 0.000030 -6.384195 0.000004 0.000017 -4.251880 0.000001 -0.000001 0.000003 165.000015 179.999985 157.942444 0.000023 0.000003 -18.047083 0.000017 -0.000005 -12.632949 0.000001 -0.000001 0.000003 0.000071 0.000045 -23.592749 0.000084 0.000012 -23.592730 0.000054 -0.000013 -15.712778 0.000001 -0.000001 0.000003 10.000063 0.000034 -24.119215 0.000060 0.000007 -24.119240 0.000040 -0.000013 -16.063387 0.000001 -0.000001 0.000003 20.000034 0.000019 -26.747896 0.000062 0.000008 -40.121861 0.000035 -0.000023 -26.721176
0.085299 96.917725 -0.691481 179.524384 -179.743546 -179.893967 175.423553 175.753525 179.046310 2.323900 0.221456 0.778209 175.116959 -175.246796 179.922852 9.353250 3.173096 0.026574 175.097641 176.890228 -179.134872 178.454269 -173.215134 179.261551 179.587006 175.609665 179.898102 179.586563 175.694275 179.876968 178.081253 176.887009 179.699722 0.000002 -3.902202 0.247760 0.000002 -4.552609 0.256612 176.759033 -176.654160 -179.657166 4.135379 2.101785 1.285414 9.189637 -10.365979 85.149971 1.834148 0.061839 1.746316 173.289352 177.902420 174.854752 53.239834 42.844284 9.354637 179.999985 -179.999985 -173.960449 0.000007 0.000007 4.022334 180.000000 -180.000000 -179.999985 15.000014 -0.000003 22.034468 0.000002 0.000000 18.028196 0.000001 -0.000003 12.619733 180.000000 -180.000000 -179.999985 0.000004 -0.000002 20.350382 180.000000 180.000000 -159.649673 180.000000 180.000000 -166.446655 180.000000 -180.000000 -179.999985 170.000000 179.999985 -157.842636 180.000000 -180.000000 -157.842651 180.000000 179.999985 -165.243210 180.000000 -180.000000 -179.999985 160.000000 -180.000000 -162.809784 0.000010 -0.000004 25.785297 0.000005 -0.000002 17.173004 0.534251 -1.321352 0.079355 168.555420 -171.990768 94.327835 177.722458 -178.275894 179.748215 3.341828 5.566191 5.815387 129.739655 126.656868 168.274490 0.000006 0.000016 -6.393240 0.000013 0.000006 -4.257889 0.000000 -0.000001 0.000000 165.000015 179.999985 157.931107 0.000018 0.000001 -18.056368 0.000012 0.000006 -12.639448 0.000000 -0.000001 0.000000 0.000052 0.000047 -23.624527 0.000068 0.000023 -23.624525 0.000042 -0.000006 -15.733944 0.000000 -0.000001 0.000000 10.000041 0.000031 -24.145329 0.000051 0.000014 -24.145321 0.000034 -0.000006 -16.080778 0.000000 -0.000001 0.000000 20.000019 0.000020 -26.765711 0.000042 0.000008 -40.148628 0.000027 -0.000011 -26.738955
0.069374 96.912949 -0.637452 179.545746 -179.786270 -179.885498 175.424927 175.767929 179.042679 2.316173 0.246965 0.794947 175.101807 -175.192062 179.911835 9.358767 3.188309 0.029166 175.098297 176.943130 -179.130341 178.427597 -173.212784 179.240402 179.577454 175.604813 179.883392 179.579300 175.689377 179.879303 178.047012 176.883591 179.700119 0.000002 -3.923121 0.255831 0.000003 -4.576949 0.264967 176.710922 -176.636765 -179.648315 4.138395 2.088619 1.246985 9.152472 -10.358114 85.189674 1.865573 0.099843 1.768976 173.291946 177.910889 174.844864 53.243507 42.838005 9.365045 0.000011 0.000017 6.044521 179.999985 -179.999985 -175.974350 0.000000 -0.000000 0.000000 15.000000 -0.000003 22.035292 0.000000 0.000003 18.028862 0.000001 0.000002 12.620212 0.000000 -0.000000 0.000000 180.000000 180.000000 -159.655655 180.000000 180.000000 -159.655624 180.000000 -180.000000 -166.450638 0.000000 -0.000000 0.000000 170.000000 -180.000000 -157.820679 0.000002 -0.000000 22.179331 0.000001 -0.000002 14.771421 0.000000 -0.000000 0.000000 160.000015 -179.999985 -162.825058 180.000000 -180.000000 -154.237579 180.000000 -180.000000 -162.842224 0.517853 -1.309839 0.118966 168.607666 -171.997559 94.272919 177.763306 -178.201050 179.748566 3.296951 5.497669 5.869776 129.804443 126.664612 168.306473 0.000004 -0.000002 -6.411621 180.000000 -180.000000 175.729858 180.000000 -180.000000 180.000000 165.000015 179.999985 157.925186 0.000018 0.000009 -18.061201 0.000016 0.000003 -12.642843 180.000000 -180.000000 180.000000 0.000024 0.000034 -23.667009 0.000033 0.000023 -23.667019 0.000030 0.000005 -15.762239 180.000000 -180.000000 180.000000 10.000017 0.000028 -24.171774 0.000026 0.000016 -24.171801 0.000022 0.000001 -16.098413 180.000000 -180.000000 180.000000 19.999998 0.000023 -26.780241 0.000033 0.000019 -40.170406 0.000020 -0.000002 -26.753477
